USFL
nRows=230
nColumns=2
inDegrees=yes
endheader
time	tib_ant_r	
3.22681	 75.047036	
3.26008	 75.025454	
3.29335	 75.047269	
3.32661	 75.244210	
3.35988	 75.159881	
3.39315	 75.093462	
3.42641	 75.033294	
3.45968	 75.102793	
3.49294	 75.157987	
3.52621	 75.163811	
3.55948	 75.135504	
3.59274	 75.153012	
3.62601	 75.228074	
3.65927	 75.288651	
3.69254	 75.226204	
3.72581	 75.192717	
3.75907	 75.199028	
3.79234	 75.213517	
3.8256	 75.263930	
3.85887	 75.231509	
3.89214	 75.230843	
3.9254	 75.232374	
3.95867	 75.222603	
3.99194	 75.249229	
4.0252	 75.301607	
4.05847	 75.308202	
4.09173	 75.281759	
4.125	 75.278899	
4.15827	 75.277808	
4.19153	 75.269311	
4.2248	 75.274549	
4.25806	 75.273288	
4.29133	 75.274659	
4.3246	 75.295608	
4.35786	 75.289533	
4.39113	 75.278748	
4.4244	 75.287483	
4.45766	 75.275146	
4.49093	 75.301248	
4.52419	 75.296594	
4.55746	 75.285113	
4.59073	 75.273190	
4.62399	 75.289678	
4.65726	 75.284905	
4.69052	 75.311158	
4.72379	 75.314540	
4.75706	 75.256343	
4.79032	 75.270286	
4.82359	 75.250147	
4.85685	 75.230760	
4.89012	 75.240660	
4.92339	 75.255478	
4.95665	 75.281141	
4.98992	 75.275643	
5.02319	 75.292319	
5.05645	 75.367846	
5.08972	 75.348264	
5.12298	 75.327513	
5.15625	 75.323401	
5.18952	 75.159627	
5.22278	 74.959413	
5.25605	 74.625442	
5.28931	 74.477164	
5.32258	 74.419886	
5.35585	 74.265982	
5.38911	 74.140526	
5.42238	 73.791796	
5.45565	 73.705053	
5.48891	 73.155706	
5.52218	 72.918242	
5.55544	 72.826364	
5.58871	 72.804696	
5.62198	 72.675765	
5.65524	 72.510933	
5.68851	 72.236032	
5.72177	 71.940206	
5.75504	 71.560104	
5.78831	 70.867252	
5.82157	 69.745632	
5.85484	 69.405839	
5.8881	 69.278865	
5.92137	 68.730608	
5.95464	 67.893178	
5.9879	 67.477350	
6.02117	 67.408790	
6.05444	 67.180738	
6.0877	 67.058121	
6.12097	 67.176056	
6.15423	 66.750185	
6.1875	 66.691879	
6.22077	 66.415380	
6.25403	 66.173083	
6.2873	 66.065130	
6.32056	 65.818078	
6.35383	 65.622422	
6.3871	 65.651051	
6.42036	 65.699535	
6.45363	 65.621622	
6.4869	 65.682635	
6.52016	 65.573604	
6.55343	 65.538041	
6.58669	 65.564032	
6.61996	 65.589935	
6.65323	 65.577344	
6.68649	 65.447250	
6.71976	 65.348290	
6.75302	 65.364094	
6.78629	 65.391120	
6.81956	 65.369022	
6.85282	 65.422137	
6.88609	 65.397011	
6.91935	 65.297619	
6.95262	 65.280866	
6.98589	 65.290212	
7.01915	 65.367690	
7.05242	 65.331299	
7.08569	 65.284053	
7.11895	 65.133867	
7.15222	 64.843325	
7.18548	 64.795878	
7.21875	 64.817178	
7.25202	 64.720298	
7.28528	 64.672581	
7.31855	 64.892601	
7.35181	 64.872415	
7.38508	 64.918606	
7.41835	 64.977460	
7.45161	 64.934039	
7.48488	 65.018207	
7.51815	 65.248037	
7.55141	 65.185226	
7.58468	 65.177871	
7.61794	 65.238975	
7.65121	 65.098901	
7.68448	 65.190824	
7.71774	 65.148306	
7.75101	 65.183513	
7.78427	 65.126290	
7.81754	 65.099666	
7.85081	 65.203578	
7.88407	 65.344731	
7.91734	 65.386080	
7.9506	 65.481409	
7.98387	 65.772136	
8.01714	 65.879815	
8.0504	 66.047391	
8.08367	 66.057027	
8.11694	 65.967086	
8.1502	 65.798341	
8.18347	 65.541483	
8.21673	 65.534905	
8.25	 65.771654	
8.28327	 65.791714	
8.31653	 65.914593	
8.3498	 65.862534	
8.38306	 65.876358	
8.41633	 66.022770	
8.4496	 65.911488	
8.48286	 65.970386	
8.51613	 65.886776	
8.5494	 65.852417	
8.58266	 65.855937	
8.61593	 65.894068	
8.64919	 66.076574	
8.68246	 66.171191	
8.71573	 66.298136	
8.74899	 66.241566	
8.78226	 66.253388	
8.81552	 66.284802	
8.84879	 66.386953	
8.88206	 66.378548	
8.91532	 66.286027	
8.94859	 66.242578	
8.98185	 66.154968	
9.01512	 66.126581	
9.04839	 66.149852	
9.08165	 66.099346	
9.11492	 66.094013	
9.14819	 66.025659	
9.18145	 66.204857	
9.21472	 66.194039	
9.24798	 66.331180	
9.28125	 66.343551	
9.31452	 66.375663	
9.34778	 66.496090	
9.38105	 66.560472	
9.41431	 66.760335	
9.44758	 66.797055	
9.48085	 66.840352	
9.51411	 66.762079	
9.54738	 66.825981	
9.58065	 66.701358	
9.61391	 66.528795	
9.64718	 66.552947	
9.68044	 66.491158	
9.71371	 66.485323	
9.74698	 66.547679	
9.78024	 66.606020	
9.81351	 66.805803	
9.84677	 66.859505	
9.88004	 66.953890	
9.91331	 67.177788	
9.94657	 67.300069	
9.97984	 67.487213	
10.0131	 67.538855	
10.0464	 67.523195	
10.0796	 67.700675	
10.1129	 67.857227	
10.1462	 67.992019	
10.1794	 67.998442	
10.2127	 68.078736	
10.246	 68.047615	
10.2792	 68.193634	
10.3125	 68.153243	
10.3458	 68.131528	
10.379	 68.103361	
10.4123	 68.030043	
10.4456	 68.074721	
10.4788	 68.124229	
10.5121	 68.177963	
10.5454	 68.385437	
10.5786	 68.486040	
10.6119	 68.458906	
10.6452	 68.690001	
10.6784	 68.549020	
10.7117	 68.567547	
10.745	 68.657538	
10.7782	 68.739635	
10.8115	 68.899874	
10.8448	 68.925500	
